<?xml version="1.0" standalone="no"?>
<!DOCTYPE svg PUBLIC "-//W3C//DTD SVG 20010904//EN"
 "http://www.w3.org/TR/2001/REC-SVG-20010904/DTD/svg10.dtd">
<svg version="1.0" xmlns="http://www.w3.org/2000/svg"
 width="442.000000pt" height="442.000000pt" viewBox="0 0 442.000000 442.000000"
 preserveAspectRatio="xMidYMid meet">

<g transform="translate(0.000000,442.000000) scale(0.100000,-0.100000)"
fill="#000000" stroke="none">
<path d="M1420 4135 l0 -135 -225 0 -225 0 0 -135 0 -135 -130 0 -130 0 0
-130 0 -130 -135 0 -135 0 0 -225 0 -225 -135 0 -135 0 0 -800 0 -800 135 0
135 0 0 -225 0 -225 135 0 135 0 0 -130 0 -130 130 0 130 0 0 -135 0 -135 225
0 225 0 0 -135 0 -135 800 0 800 0 0 135 0 135 225 0 225 0 0 135 0 135 130 0
130 0 0 130 0 130 135 0 135 0 0 225 0 225 135 0 135 0 0 800 0 800 -135 0
-135 0 0 225 0 225 -135 0 -135 0 0 130 0 130 -130 0 -130 0 0 135 0 135 -225
0 -225 0 0 135 0 135 -800 0 -800 0 0 -135z m1602 -267 l3 -133 223 -3 222 -2
0 -130 0 -130 130 0 130 0 2 -222 3 -223 133 -3 132 -3 0 -799 0 -799 -132 -3
-133 -3 -3 -223 -2 -222 -130 0 -130 0 0 -130 0 -130 -222 -2 -223 -3 -3 -132
-3 -133 -799 0 -799 0 -3 133 -3 132 -222 3 -223 2 0 130 0 130 -130 0 -130 0
-2 223 -3 222 -132 3 -133 3 0 799 0 799 133 3 132 3 3 223 2 222 130 0 130 0
0 130 0 130 223 2 222 3 3 133 3 132 799 0 799 0 3 -132z"/>
<path d="M1150 2665 l0 -535 265 0 265 0 0 535 0 535 -265 0 -265 0 0 -535z"/>
<path d="M2760 2665 l0 -535 265 0 265 0 0 535 0 535 -265 0 -265 0 0 -535z"/>
<path d="M1240 1505 l0 -265 135 0 135 0 0 -135 0 -135 710 0 710 0 0 135 0
135 135 0 135 0 0 265 0 265 -135 0 -135 0 0 -265 0 -265 -710 0 -710 0 0 265
0 265 -135 0 -135 0 0 -265z"/>
</g>
</svg>
